<mxfile host="app.diagrams.net" agent="Mozilla/5.0 (Windows NT 10.0; Win64; x64) AppleWebKit/537.36 (KHTML, like Gecko) Chrome/131.0.0.0 Safari/537.36 Edg/131.0.0.0" version="25.0.3">
  <diagram name="Concept-Model" id="b5b7bab2-c9e2-2cf4-8b2a-24fd1a2a6d21">
    <mxGraphModel dx="2253" dy="791" grid="1" gridSize="10" guides="1" tooltips="1" connect="1" arrows="1" fold="1" page="1" pageScale="1" pageWidth="827" pageHeight="1169" background="none" math="0" shadow="0">
      <root>
        <mxCell id="0" />
        <mxCell id="1" parent="0" />
        <mxCell id="rktopHRJ8DNvwgO-e6lh-18" style="edgeStyle=orthogonalEdgeStyle;rounded=0;orthogonalLoop=1;jettySize=auto;html=1;entryX=1;entryY=0.5;entryDx=0;entryDy=0;exitX=0.25;exitY=0;exitDx=0;exitDy=0;endArrow=none;endFill=0;fontStyle=0" edge="1" parent="1" source="rktopHRJ8DNvwgO-e6lh-1" target="rktopHRJ8DNvwgO-e6lh-12">
          <mxGeometry relative="1" as="geometry" />
        </mxCell>
        <mxCell id="rktopHRJ8DNvwgO-e6lh-19" value="Has" style="edgeLabel;html=1;align=center;verticalAlign=middle;resizable=0;points=[];" vertex="1" connectable="0" parent="rktopHRJ8DNvwgO-e6lh-18">
          <mxGeometry x="-0.0811" y="1" relative="1" as="geometry">
            <mxPoint as="offset" />
          </mxGeometry>
        </mxCell>
        <mxCell id="rktopHRJ8DNvwgO-e6lh-30" style="edgeStyle=orthogonalEdgeStyle;rounded=0;orthogonalLoop=1;jettySize=auto;html=1;entryX=0;entryY=0.5;entryDx=0;entryDy=0;endArrow=none;endFill=0;" edge="1" parent="1" source="rktopHRJ8DNvwgO-e6lh-1" target="rktopHRJ8DNvwgO-e6lh-22">
          <mxGeometry relative="1" as="geometry">
            <Array as="points">
              <mxPoint x="240" y="365" />
              <mxPoint x="240" y="245" />
            </Array>
          </mxGeometry>
        </mxCell>
        <mxCell id="rktopHRJ8DNvwgO-e6lh-31" value="Plays" style="edgeLabel;html=1;align=center;verticalAlign=middle;resizable=0;points=[];" vertex="1" connectable="0" parent="rktopHRJ8DNvwgO-e6lh-30">
          <mxGeometry x="0.3913" y="2" relative="1" as="geometry">
            <mxPoint as="offset" />
          </mxGeometry>
        </mxCell>
        <mxCell id="rktopHRJ8DNvwgO-e6lh-36" style="edgeStyle=orthogonalEdgeStyle;rounded=0;orthogonalLoop=1;jettySize=auto;html=1;entryX=0;entryY=0.5;entryDx=0;entryDy=0;endArrow=none;endFill=0;" edge="1" parent="1" source="rktopHRJ8DNvwgO-e6lh-1" target="rktopHRJ8DNvwgO-e6lh-32">
          <mxGeometry relative="1" as="geometry">
            <Array as="points">
              <mxPoint x="120" y="45" />
            </Array>
          </mxGeometry>
        </mxCell>
        <mxCell id="rktopHRJ8DNvwgO-e6lh-37" value="Has" style="edgeLabel;html=1;align=center;verticalAlign=middle;resizable=0;points=[];" vertex="1" connectable="0" parent="rktopHRJ8DNvwgO-e6lh-36">
          <mxGeometry x="0.6854" relative="1" as="geometry">
            <mxPoint as="offset" />
          </mxGeometry>
        </mxCell>
        <mxCell id="rktopHRJ8DNvwgO-e6lh-1" value="PARTY" style="rounded=1;whiteSpace=wrap;html=1;fillColor=#f5f5f5;fontColor=#333333;strokeColor=#666666;" vertex="1" parent="1">
          <mxGeometry x="60" y="340" width="120" height="50" as="geometry" />
        </mxCell>
        <mxCell id="rktopHRJ8DNvwgO-e6lh-4" style="edgeStyle=orthogonalEdgeStyle;rounded=0;orthogonalLoop=1;jettySize=auto;html=1;entryX=0.5;entryY=1;entryDx=0;entryDy=0;endArrow=block;endFill=1;" edge="1" parent="1" source="rktopHRJ8DNvwgO-e6lh-2" target="rktopHRJ8DNvwgO-e6lh-1">
          <mxGeometry relative="1" as="geometry" />
        </mxCell>
        <mxCell id="rktopHRJ8DNvwgO-e6lh-2" value="PERSON" style="rounded=1;whiteSpace=wrap;html=1;fillColor=#dae8fc;strokeColor=#6c8ebf;" vertex="1" parent="1">
          <mxGeometry x="-40" y="440" width="120" height="50" as="geometry" />
        </mxCell>
        <mxCell id="rktopHRJ8DNvwgO-e6lh-5" style="edgeStyle=orthogonalEdgeStyle;rounded=0;orthogonalLoop=1;jettySize=auto;html=1;entryX=0.5;entryY=1;entryDx=0;entryDy=0;endArrow=block;endFill=1;" edge="1" parent="1" source="rktopHRJ8DNvwgO-e6lh-3" target="rktopHRJ8DNvwgO-e6lh-1">
          <mxGeometry relative="1" as="geometry" />
        </mxCell>
        <mxCell id="rktopHRJ8DNvwgO-e6lh-20" style="edgeStyle=orthogonalEdgeStyle;rounded=0;orthogonalLoop=1;jettySize=auto;html=1;endArrow=none;endFill=0;" edge="1" parent="1" source="rktopHRJ8DNvwgO-e6lh-3" target="rktopHRJ8DNvwgO-e6lh-9">
          <mxGeometry relative="1" as="geometry" />
        </mxCell>
        <mxCell id="rktopHRJ8DNvwgO-e6lh-21" value="Has" style="edgeLabel;html=1;align=center;verticalAlign=middle;resizable=0;points=[];" vertex="1" connectable="0" parent="rktopHRJ8DNvwgO-e6lh-20">
          <mxGeometry x="0.1667" y="-1" relative="1" as="geometry">
            <mxPoint as="offset" />
          </mxGeometry>
        </mxCell>
        <mxCell id="rktopHRJ8DNvwgO-e6lh-3" value="ORGANIZATION" style="rounded=1;whiteSpace=wrap;html=1;fillColor=#fff2cc;strokeColor=#d6b656;" vertex="1" parent="1">
          <mxGeometry x="160" y="440" width="120" height="50" as="geometry" />
        </mxCell>
        <mxCell id="rktopHRJ8DNvwgO-e6lh-63" value="" style="edgeStyle=orthogonalEdgeStyle;rounded=0;orthogonalLoop=1;jettySize=auto;html=1;endArrow=block;endFill=1;" edge="1" parent="1" source="rktopHRJ8DNvwgO-e6lh-6" target="rktopHRJ8DNvwgO-e6lh-3">
          <mxGeometry relative="1" as="geometry" />
        </mxCell>
        <mxCell id="rktopHRJ8DNvwgO-e6lh-6" value="ORGANIZATION SUBDIVISION" style="rounded=1;whiteSpace=wrap;html=1;fillColor=#fff2cc;strokeColor=#d6b656;" vertex="1" parent="1">
          <mxGeometry x="160" y="535" width="120" height="50" as="geometry" />
        </mxCell>
        <mxCell id="rktopHRJ8DNvwgO-e6lh-10" style="edgeStyle=orthogonalEdgeStyle;rounded=0;orthogonalLoop=1;jettySize=auto;html=1;entryX=0.5;entryY=1;entryDx=0;entryDy=0;endArrow=block;endFill=1;" edge="1" parent="1" source="rktopHRJ8DNvwgO-e6lh-7" target="rktopHRJ8DNvwgO-e6lh-9">
          <mxGeometry relative="1" as="geometry" />
        </mxCell>
        <mxCell id="rktopHRJ8DNvwgO-e6lh-7" value="LEGAL" style="rounded=1;whiteSpace=wrap;html=1;fillColor=#fff2cc;strokeColor=#d6b656;" vertex="1" parent="1">
          <mxGeometry x="320" y="535" width="120" height="50" as="geometry" />
        </mxCell>
        <mxCell id="rktopHRJ8DNvwgO-e6lh-11" style="edgeStyle=orthogonalEdgeStyle;rounded=0;orthogonalLoop=1;jettySize=auto;html=1;entryX=0.5;entryY=1;entryDx=0;entryDy=0;endArrow=block;endFill=1;" edge="1" parent="1" source="rktopHRJ8DNvwgO-e6lh-8" target="rktopHRJ8DNvwgO-e6lh-9">
          <mxGeometry relative="1" as="geometry" />
        </mxCell>
        <mxCell id="rktopHRJ8DNvwgO-e6lh-8" value="COMMERCIAL" style="rounded=1;whiteSpace=wrap;html=1;fillColor=#fff2cc;strokeColor=#d6b656;" vertex="1" parent="1">
          <mxGeometry x="480" y="535" width="120" height="50" as="geometry" />
        </mxCell>
        <mxCell id="rktopHRJ8DNvwgO-e6lh-9" value="ORGANIZATION STRUCTURE" style="rounded=1;whiteSpace=wrap;html=1;fillColor=#fff2cc;strokeColor=#d6b656;" vertex="1" parent="1">
          <mxGeometry x="400" y="440" width="120" height="50" as="geometry" />
        </mxCell>
        <mxCell id="rktopHRJ8DNvwgO-e6lh-12" value="PARTY DETAILS" style="rounded=1;whiteSpace=wrap;html=1;fillColor=#f5f5f5;fontColor=#333333;strokeColor=#666666;" vertex="1" parent="1">
          <mxGeometry x="-90" y="220" width="120" height="50" as="geometry" />
        </mxCell>
        <mxCell id="rktopHRJ8DNvwgO-e6lh-15" style="edgeStyle=orthogonalEdgeStyle;rounded=0;orthogonalLoop=1;jettySize=auto;html=1;entryX=0;entryY=0.5;entryDx=0;entryDy=0;horizontal=1;endArrow=block;endFill=1;" edge="1" parent="1" source="rktopHRJ8DNvwgO-e6lh-13" target="rktopHRJ8DNvwgO-e6lh-12">
          <mxGeometry relative="1" as="geometry" />
        </mxCell>
        <mxCell id="rktopHRJ8DNvwgO-e6lh-13" value="PERSON DETAILS" style="rounded=1;whiteSpace=wrap;html=1;fillColor=#dae8fc;strokeColor=#6c8ebf;" vertex="1" parent="1">
          <mxGeometry x="-280" y="170" width="120" height="50" as="geometry" />
        </mxCell>
        <mxCell id="rktopHRJ8DNvwgO-e6lh-17" style="edgeStyle=orthogonalEdgeStyle;rounded=0;orthogonalLoop=1;jettySize=auto;html=1;entryX=0;entryY=0.5;entryDx=0;entryDy=0;endArrow=block;endFill=1;" edge="1" parent="1" source="rktopHRJ8DNvwgO-e6lh-14" target="rktopHRJ8DNvwgO-e6lh-12">
          <mxGeometry relative="1" as="geometry" />
        </mxCell>
        <mxCell id="rktopHRJ8DNvwgO-e6lh-14" value="ORGANIZATION DETAILS" style="rounded=1;whiteSpace=wrap;html=1;fillColor=#fff2cc;strokeColor=#d6b656;" vertex="1" parent="1">
          <mxGeometry x="-280" y="280" width="120" height="50" as="geometry" />
        </mxCell>
        <mxCell id="rktopHRJ8DNvwgO-e6lh-22" value="PARTY ROLE" style="rounded=1;whiteSpace=wrap;html=1;fillColor=#f5f5f5;fontColor=#333333;strokeColor=#666666;" vertex="1" parent="1">
          <mxGeometry x="420" y="220" width="120" height="50" as="geometry" />
        </mxCell>
        <mxCell id="rktopHRJ8DNvwgO-e6lh-26" style="edgeStyle=orthogonalEdgeStyle;rounded=0;orthogonalLoop=1;jettySize=auto;html=1;exitX=0.5;exitY=0;exitDx=0;exitDy=0;endArrow=block;endFill=1;" edge="1" parent="1" source="rktopHRJ8DNvwgO-e6lh-23" target="rktopHRJ8DNvwgO-e6lh-22">
          <mxGeometry relative="1" as="geometry" />
        </mxCell>
        <mxCell id="rktopHRJ8DNvwgO-e6lh-23" value="CUSTOMER" style="rounded=1;whiteSpace=wrap;html=1;fillColor=#f5f5f5;fontColor=#333333;strokeColor=#666666;" vertex="1" parent="1">
          <mxGeometry x="280" y="310" width="120" height="50" as="geometry" />
        </mxCell>
        <mxCell id="rktopHRJ8DNvwgO-e6lh-27" style="edgeStyle=orthogonalEdgeStyle;rounded=0;orthogonalLoop=1;jettySize=auto;html=1;entryX=0.5;entryY=1;entryDx=0;entryDy=0;endArrow=block;endFill=1;" edge="1" parent="1" source="rktopHRJ8DNvwgO-e6lh-24" target="rktopHRJ8DNvwgO-e6lh-22">
          <mxGeometry relative="1" as="geometry" />
        </mxCell>
        <mxCell id="rktopHRJ8DNvwgO-e6lh-24" value="BUYER" style="rounded=1;whiteSpace=wrap;html=1;fillColor=#dae8fc;strokeColor=#6c8ebf;" vertex="1" parent="1">
          <mxGeometry x="420" y="310" width="120" height="50" as="geometry" />
        </mxCell>
        <mxCell id="rktopHRJ8DNvwgO-e6lh-28" style="edgeStyle=orthogonalEdgeStyle;rounded=0;orthogonalLoop=1;jettySize=auto;html=1;entryX=0.5;entryY=1;entryDx=0;entryDy=0;endArrow=classic;endFill=1;" edge="1" parent="1" source="rktopHRJ8DNvwgO-e6lh-25" target="rktopHRJ8DNvwgO-e6lh-22">
          <mxGeometry relative="1" as="geometry">
            <Array as="points">
              <mxPoint x="640" y="290" />
              <mxPoint x="480" y="290" />
            </Array>
          </mxGeometry>
        </mxCell>
        <mxCell id="rktopHRJ8DNvwgO-e6lh-25" value="BUSINESS ACCOUNT CONTACT" style="rounded=1;whiteSpace=wrap;html=1;fillColor=#dae8fc;strokeColor=#6c8ebf;" vertex="1" parent="1">
          <mxGeometry x="560" y="310" width="120" height="50" as="geometry" />
        </mxCell>
        <mxCell id="rktopHRJ8DNvwgO-e6lh-32" value="CONTACT METHOD" style="rounded=1;whiteSpace=wrap;html=1;fillColor=#f5f5f5;fontColor=#333333;strokeColor=#666666;" vertex="1" parent="1">
          <mxGeometry x="340" y="20" width="120" height="50" as="geometry" />
        </mxCell>
        <mxCell id="rktopHRJ8DNvwgO-e6lh-39" value="" style="edgeStyle=orthogonalEdgeStyle;rounded=0;orthogonalLoop=1;jettySize=auto;html=1;endArrow=block;endFill=1;" edge="1" parent="1" source="rktopHRJ8DNvwgO-e6lh-33" target="rktopHRJ8DNvwgO-e6lh-32">
          <mxGeometry relative="1" as="geometry" />
        </mxCell>
        <mxCell id="rktopHRJ8DNvwgO-e6lh-33" value="PHONE" style="rounded=1;whiteSpace=wrap;html=1;fillColor=#f5f5f5;fontColor=#333333;strokeColor=#666666;" vertex="1" parent="1">
          <mxGeometry x="340" y="110" width="120" height="50" as="geometry" />
        </mxCell>
        <mxCell id="rktopHRJ8DNvwgO-e6lh-38" style="edgeStyle=orthogonalEdgeStyle;rounded=0;orthogonalLoop=1;jettySize=auto;html=1;entryX=0.5;entryY=1;entryDx=0;entryDy=0;endArrow=block;endFill=1;" edge="1" parent="1" source="rktopHRJ8DNvwgO-e6lh-34" target="rktopHRJ8DNvwgO-e6lh-32">
          <mxGeometry relative="1" as="geometry">
            <Array as="points">
              <mxPoint x="260" y="90" />
              <mxPoint x="400" y="90" />
            </Array>
          </mxGeometry>
        </mxCell>
        <mxCell id="rktopHRJ8DNvwgO-e6lh-34" value="EMAIL" style="rounded=1;whiteSpace=wrap;html=1;fillColor=#f5f5f5;fontColor=#333333;strokeColor=#666666;" vertex="1" parent="1">
          <mxGeometry x="200" y="110" width="120" height="50" as="geometry" />
        </mxCell>
        <mxCell id="rktopHRJ8DNvwgO-e6lh-40" style="edgeStyle=orthogonalEdgeStyle;rounded=0;orthogonalLoop=1;jettySize=auto;html=1;entryX=0.5;entryY=1;entryDx=0;entryDy=0;endArrow=block;endFill=1;" edge="1" parent="1" source="rktopHRJ8DNvwgO-e6lh-35" target="rktopHRJ8DNvwgO-e6lh-32">
          <mxGeometry relative="1" as="geometry">
            <Array as="points">
              <mxPoint x="540" y="90" />
              <mxPoint x="400" y="90" />
            </Array>
          </mxGeometry>
        </mxCell>
        <mxCell id="rktopHRJ8DNvwgO-e6lh-58" style="rounded=0;orthogonalLoop=1;jettySize=auto;html=1;exitX=1;exitY=0.5;exitDx=0;exitDy=0;entryX=0;entryY=0.5;entryDx=0;entryDy=0;endArrow=none;endFill=0;fillColor=#ffe6cc;strokeColor=#d79b00;dashed=1;" edge="1" parent="1" source="rktopHRJ8DNvwgO-e6lh-35" target="rktopHRJ8DNvwgO-e6lh-56">
          <mxGeometry relative="1" as="geometry" />
        </mxCell>
        <mxCell id="rktopHRJ8DNvwgO-e6lh-35" value="ADDRESS" style="rounded=1;whiteSpace=wrap;html=1;fillColor=#f5f5f5;fontColor=#333333;strokeColor=#666666;" vertex="1" parent="1">
          <mxGeometry x="480" y="110" width="120" height="50" as="geometry" />
        </mxCell>
        <mxCell id="rktopHRJ8DNvwgO-e6lh-41" value="" style="verticalLabelPosition=bottom;aspect=fixed;html=1;shape=mxgraph.salesforce.social_studio;" vertex="1" parent="1">
          <mxGeometry x="-230" y="210" width="20" height="20" as="geometry" />
        </mxCell>
        <mxCell id="rktopHRJ8DNvwgO-e6lh-43" value="" style="shape=mxgraph.signs.tech.at_2;html=1;pointerEvents=1;fillColor=#000000;strokeColor=none;verticalLabelPosition=bottom;verticalAlign=top;align=center;sketch=0;" vertex="1" parent="1">
          <mxGeometry x="250" y="150" width="20" height="17.5" as="geometry" />
        </mxCell>
        <mxCell id="rktopHRJ8DNvwgO-e6lh-45" value="" style="shape=mxgraph.signs.tech.telephone_2;html=1;pointerEvents=1;fillColor=#000000;strokeColor=none;verticalLabelPosition=bottom;verticalAlign=top;align=center;sketch=0;" vertex="1" parent="1">
          <mxGeometry x="395" y="145.75" width="10" height="28" as="geometry" />
        </mxCell>
        <mxCell id="rktopHRJ8DNvwgO-e6lh-49" value="" style="shape=image;verticalLabelPosition=bottom;labelBackgroundColor=default;verticalAlign=top;aspect=fixed;imageAspect=0;image=https://www.atlasante.fr/upload/gedit/1/picto_geoloc.png;" vertex="1" parent="1">
          <mxGeometry x="525" y="143.75" width="30" height="30" as="geometry" />
        </mxCell>
        <mxCell id="rktopHRJ8DNvwgO-e6lh-56" value="- Legal address&lt;br&gt;- Delivery addresses (multiple&lt;br&gt;possible with preferred address)&lt;br&gt;- Invoicing addresses" style="text;html=1;align=left;verticalAlign=middle;whiteSpace=wrap;rounded=0;fontSize=10;fillColor=#ffe6cc;strokeColor=#d79b00;dashed=1;" vertex="1" parent="1">
          <mxGeometry x="620" y="143.75" width="180" height="66.25" as="geometry" />
        </mxCell>
        <mxCell id="rktopHRJ8DNvwgO-e6lh-59" value="- First Name&lt;br&gt;- Last Name&lt;br&gt;- …." style="text;html=1;align=left;verticalAlign=middle;whiteSpace=wrap;rounded=0;fillColor=#ffe6cc;strokeColor=#d79b00;dashed=1;fontSize=10;" vertex="1" parent="1">
          <mxGeometry x="-440" y="134.75" width="117" height="50" as="geometry" />
        </mxCell>
        <mxCell id="rktopHRJ8DNvwgO-e6lh-60" style="rounded=0;orthogonalLoop=1;jettySize=auto;html=1;exitX=1;exitY=0.5;exitDx=0;exitDy=0;entryX=0;entryY=0.25;entryDx=0;entryDy=0;endArrow=none;endFill=0;fillColor=#ffe6cc;strokeColor=#d79b00;dashed=1;fontSize=10;" edge="1" parent="1" source="rktopHRJ8DNvwgO-e6lh-59" target="rktopHRJ8DNvwgO-e6lh-13">
          <mxGeometry relative="1" as="geometry">
            <mxPoint x="-310" y="160" as="sourcePoint" />
            <mxPoint x="-290" y="202" as="targetPoint" />
          </mxGeometry>
        </mxCell>
        <mxCell id="rktopHRJ8DNvwgO-e6lh-61" value="- N° of employees&lt;br&gt;- Turnover&lt;br&gt;- …." style="text;html=1;align=left;verticalAlign=middle;whiteSpace=wrap;rounded=0;fillColor=#ffe6cc;strokeColor=#d79b00;dashed=1;fontSize=10;" vertex="1" parent="1">
          <mxGeometry x="-440" y="300" width="117" height="50" as="geometry" />
        </mxCell>
        <mxCell id="rktopHRJ8DNvwgO-e6lh-62" style="rounded=0;orthogonalLoop=1;jettySize=auto;html=1;exitX=1;exitY=0.75;exitDx=0;exitDy=0;entryX=0;entryY=0.75;entryDx=0;entryDy=0;endArrow=none;endFill=0;fillColor=#ffe6cc;strokeColor=#d79b00;dashed=1;fontSize=10;" edge="1" parent="1" source="rktopHRJ8DNvwgO-e6lh-61" target="rktopHRJ8DNvwgO-e6lh-14">
          <mxGeometry relative="1" as="geometry">
            <mxPoint x="-323" y="287" as="sourcePoint" />
            <mxPoint x="-280" y="310" as="targetPoint" />
          </mxGeometry>
        </mxCell>
        <mxCell id="rktopHRJ8DNvwgO-e6lh-64" value="&lt;p style=&quot;language:fr;margin-top:0pt;margin-bottom:0pt;margin-left:0in;&lt;br/&gt;text-align:left;direction:ltr;unicode-bidi:embed;vertical-align:middle;&lt;br/&gt;mso-line-break-override:none;word-break:normal;punctuation-wrap:hanging&quot;&gt;&lt;font&gt;&lt;span style=&quot;font-family: Calibri;&quot;&gt;Party&amp;nbsp;&lt;/span&gt;&lt;span style=&quot;background-color: initial; font-family: Calibri;&quot;&gt;Alternate&amp;nbsp;&lt;/span&gt;&lt;span style=&quot;background-color: initial; font-family: Calibri;&quot;&gt;Identifier&lt;/span&gt;&lt;/font&gt;&lt;/p&gt;" style="rounded=0;whiteSpace=wrap;html=1;fillColor=#76608a;strokeColor=#432D57;fontColor=#ffffff;" vertex="1" parent="1">
          <mxGeometry x="-480" y="680" width="160" height="40" as="geometry" />
        </mxCell>
        <mxCell id="rktopHRJ8DNvwgO-e6lh-65" value="&lt;p style=&quot;language:fr;margin-top:0pt;margin-bottom:0pt;margin-left:0in;&lt;br/&gt;text-align:left;direction:ltr;unicode-bidi:embed;vertical-align:middle;&lt;br/&gt;mso-line-break-override:none;word-break:normal;punctuation-wrap:hanging&quot;&gt;UAI Code&lt;/p&gt;&lt;p style=&quot;language:fr;margin-top:0pt;margin-bottom:0pt;margin-left:0in;&lt;br/&gt;text-align:left;direction:ltr;unicode-bidi:embed;vertical-align:middle;&lt;br/&gt;mso-line-break-override:none;word-break:normal;punctuation-wrap:hanging&quot;&gt;Finess Code&lt;/p&gt;&lt;p style=&quot;language:fr;margin-top:0pt;margin-bottom:0pt;margin-left:0in;&lt;br/&gt;text-align:left;direction:ltr;unicode-bidi:embed;vertical-align:middle;&lt;br/&gt;mso-line-break-override:none;word-break:normal;punctuation-wrap:hanging&quot;&gt;Generic SIRET&lt;/p&gt;" style="rounded=0;whiteSpace=wrap;html=1;align=left;fillColor=#e1d5e7;strokeColor=#9673a6;verticalAlign=top;" vertex="1" parent="1">
          <mxGeometry x="-480" y="730" width="160" height="60" as="geometry" />
        </mxCell>
        <mxCell id="rktopHRJ8DNvwgO-e6lh-66" value="&lt;p style=&quot;language:fr;margin-top:0pt;margin-bottom:0pt;margin-left:0in;&lt;br/&gt;text-align:left;direction:ltr;unicode-bidi:embed;vertical-align:middle;&lt;br/&gt;mso-line-break-override:none;word-break:normal;punctuation-wrap:hanging&quot;&gt;&lt;font face=&quot;Calibri&quot;&gt;Subsidiary&lt;/font&gt;&lt;/p&gt;" style="rounded=0;whiteSpace=wrap;html=1;fillColor=#76608a;strokeColor=#432D57;fontColor=#ffffff;" vertex="1" parent="1">
          <mxGeometry x="-300" y="680" width="160" height="40" as="geometry" />
        </mxCell>
        <mxCell id="rktopHRJ8DNvwgO-e6lh-67" value="&lt;p style=&quot;language:fr;margin-top:0pt;margin-bottom:0pt;margin-left:0in;&lt;br/&gt;text-align:left;direction:ltr;unicode-bidi:embed;vertical-align:middle;&lt;br/&gt;mso-line-break-override:none;word-break:normal;punctuation-wrap:hanging&quot;&gt;Subsidiary Code&lt;/p&gt;&lt;p style=&quot;language:fr;margin-top:0pt;margin-bottom:0pt;margin-left:0in;&lt;br/&gt;text-align:left;direction:ltr;unicode-bidi:embed;vertical-align:middle;&lt;br/&gt;mso-line-break-override:none;word-break:normal;punctuation-wrap:hanging&quot;&gt;Subsidiary ID&lt;/p&gt;&lt;p style=&quot;language:fr;margin-top:0pt;margin-bottom:0pt;margin-left:0in;&lt;br/&gt;text-align:left;direction:ltr;unicode-bidi:embed;vertical-align:middle;&lt;br/&gt;mso-line-break-override:none;word-break:normal;punctuation-wrap:hanging&quot;&gt;Subsidiary Name&lt;/p&gt;&lt;p style=&quot;language:fr;margin-top:0pt;margin-bottom:0pt;margin-left:0in;&lt;br/&gt;text-align:left;direction:ltr;unicode-bidi:embed;vertical-align:middle;&lt;br/&gt;mso-line-break-override:none;word-break:normal;punctuation-wrap:hanging&quot;&gt;Silver Identifier&lt;/p&gt;&lt;div&gt;&lt;br&gt;&lt;/div&gt;" style="rounded=0;whiteSpace=wrap;html=1;align=left;fillColor=#e1d5e7;strokeColor=#9673a6;verticalAlign=top;" vertex="1" parent="1">
          <mxGeometry x="-300" y="730" width="160" height="190" as="geometry" />
        </mxCell>
        <mxCell id="rktopHRJ8DNvwgO-e6lh-68" value="&lt;p style=&quot;language:fr;margin-top:0pt;margin-bottom:0pt;margin-left:0in;&lt;br/&gt;text-align:left;direction:ltr;unicode-bidi:embed;vertical-align:middle;&lt;br/&gt;mso-line-break-override:none;word-break:normal;punctuation-wrap:hanging&quot;&gt;&lt;font face=&quot;Calibri&quot;&gt;Party Subsidiary Status&lt;/font&gt;&lt;/p&gt;" style="rounded=0;whiteSpace=wrap;html=1;fillColor=#76608a;strokeColor=#432D57;fontColor=#ffffff;" vertex="1" parent="1">
          <mxGeometry x="-120" y="680" width="160" height="40" as="geometry" />
        </mxCell>
        <mxCell id="rktopHRJ8DNvwgO-e6lh-69" value="&lt;p style=&quot;language:fr;margin-top:0pt;margin-bottom:0pt;margin-left:0in;&lt;br/&gt;text-align:left;direction:ltr;unicode-bidi:embed;vertical-align:middle;&lt;br/&gt;mso-line-break-override:none;word-break:normal;punctuation-wrap:hanging&quot;&gt;Customer ID&lt;/p&gt;&lt;p style=&quot;language:fr;margin-top:0pt;margin-bottom:0pt;margin-left:0in;&lt;br/&gt;text-align:left;direction:ltr;unicode-bidi:embed;vertical-align:middle;&lt;br/&gt;mso-line-break-override:none;word-break:normal;punctuation-wrap:hanging&quot;&gt;Subsidiary ID&lt;/p&gt;&lt;p style=&quot;language:fr;margin-top:0pt;margin-bottom:0pt;margin-left:0in;&lt;br/&gt;text-align:left;direction:ltr;unicode-bidi:embed;vertical-align:middle;&lt;br/&gt;mso-line-break-override:none;word-break:normal;punctuation-wrap:hanging&quot;&gt;Silver Business Status&amp;nbsp;&amp;nbsp;&lt;/p&gt;&lt;p style=&quot;language:fr;margin-top:0pt;margin-bottom:0pt;margin-left:0in;&lt;br/&gt;text-align:left;direction:ltr;unicode-bidi:embed;vertical-align:middle;&lt;br/&gt;mso-line-break-override:none;word-break:normal;punctuation-wrap:hanging&quot;&gt;Silver Legal Status&lt;/p&gt;" style="rounded=0;whiteSpace=wrap;html=1;align=left;fillColor=#e1d5e7;strokeColor=#9673a6;verticalAlign=top;" vertex="1" parent="1">
          <mxGeometry x="-120" y="730" width="160" height="190" as="geometry" />
        </mxCell>
        <mxCell id="rktopHRJ8DNvwgO-e6lh-70" value="&lt;p style=&quot;language:fr;margin-top:0pt;margin-bottom:0pt;margin-left:0in;&lt;br/&gt;text-align:left;direction:ltr;unicode-bidi:embed;vertical-align:middle;&lt;br/&gt;mso-line-break-override:none;word-break:normal;punctuation-wrap:hanging&quot;&gt;&lt;font face=&quot;Calibri&quot;&gt;Party&lt;/font&gt;&lt;/p&gt;" style="rounded=0;whiteSpace=wrap;html=1;fillColor=#76608a;strokeColor=#432D57;fontColor=#ffffff;" vertex="1" parent="1">
          <mxGeometry x="60" y="680" width="160" height="40" as="geometry" />
        </mxCell>
        <mxCell id="rktopHRJ8DNvwgO-e6lh-71" value="&lt;p style=&quot;language:fr;margin-top:0pt;margin-bottom:0pt;margin-left:0in;&lt;br/&gt;text-align:left;direction:ltr;unicode-bidi:embed;vertical-align:middle;&lt;br/&gt;mso-line-break-override:none;word-break:normal;punctuation-wrap:hanging&quot;&gt;Org found&lt;/p&gt;&lt;p style=&quot;language:fr;margin-top:0pt;margin-bottom:0pt;margin-left:0in;&lt;br/&gt;text-align:left;direction:ltr;unicode-bidi:embed;vertical-align:middle;&lt;br/&gt;mso-line-break-override:none;word-break:normal;punctuation-wrap:hanging&quot;&gt;Check External Provider&lt;/p&gt;&lt;p style=&quot;language:fr;margin-top:0pt;margin-bottom:0pt;margin-left:0in;&lt;br/&gt;text-align:left;direction:ltr;unicode-bidi:embed;vertical-align:middle;&lt;br/&gt;mso-line-break-override:none;word-break:normal;punctuation-wrap:hanging&quot;&gt;Business Parent&lt;/p&gt;&lt;p style=&quot;language:fr;margin-top:0pt;margin-bottom:0pt;margin-left:0in;&lt;br/&gt;text-align:left;direction:ltr;unicode-bidi:embed;vertical-align:middle;&lt;br/&gt;mso-line-break-override:none;word-break:normal;punctuation-wrap:hanging&quot;&gt;Manual Business Parent&lt;/p&gt;&lt;p style=&quot;language:fr;margin-top:0pt;margin-bottom:0pt;margin-left:0in;&lt;br/&gt;text-align:left;direction:ltr;unicode-bidi:embed;vertical-align:middle;&lt;br/&gt;mso-line-break-override:none;word-break:normal;punctuation-wrap:hanging&quot;&gt;Business level&lt;/p&gt;&lt;p style=&quot;language:fr;margin-top:0pt;margin-bottom:0pt;margin-left:0in;&lt;br/&gt;text-align:left;direction:ltr;unicode-bidi:embed;vertical-align:middle;&lt;br/&gt;mso-line-break-override:none;word-break:normal;punctuation-wrap:hanging&quot;&gt;Functional Modified by&amp;nbsp;&lt;/p&gt;&lt;p style=&quot;language:fr;margin-top:0pt;margin-bottom:0pt;margin-left:0in;&lt;br/&gt;text-align:left;direction:ltr;unicode-bidi:embed;vertical-align:middle;&lt;br/&gt;mso-line-break-override:none;word-break:normal;punctuation-wrap:hanging&quot;&gt;Functional Created by&lt;/p&gt;&lt;p style=&quot;language:fr;margin-top:0pt;margin-bottom:0pt;margin-left:0in;&lt;br/&gt;text-align:left;direction:ltr;unicode-bidi:embed;vertical-align:middle;&lt;br/&gt;mso-line-break-override:none;word-break:normal;punctuation-wrap:hanging&quot;&gt;Check Data Steward&lt;/p&gt;&lt;p style=&quot;language:fr;margin-top:0pt;margin-bottom:0pt;margin-left:0in;&lt;br/&gt;text-align:left;direction:ltr;unicode-bidi:embed;vertical-align:middle;&lt;br/&gt;mso-line-break-override:none;word-break:normal;punctuation-wrap:hanging&quot;&gt;Third party type&lt;/p&gt;&lt;p style=&quot;language:fr;margin-top:0pt;margin-bottom:0pt;margin-left:0in;&lt;br/&gt;text-align:left;direction:ltr;unicode-bidi:embed;vertical-align:middle;&lt;br/&gt;mso-line-break-override:none;word-break:normal;punctuation-wrap:hanging&quot;&gt;Site description&lt;/p&gt;&lt;p style=&quot;language:fr;margin-top:0pt;margin-bottom:0pt;margin-left:0in;&lt;br/&gt;text-align:left;direction:ltr;unicode-bidi:embed;vertical-align:middle;&lt;br/&gt;mso-line-break-override:none;word-break:normal;punctuation-wrap:hanging&quot;&gt;Managed&lt;/p&gt;&lt;p style=&quot;language:fr;margin-top:0pt;margin-bottom:0pt;margin-left:0in;&lt;br/&gt;text-align:left;direction:ltr;unicode-bidi:embed;vertical-align:middle;&lt;br/&gt;mso-line-break-override:none;word-break:normal;punctuation-wrap:hanging&quot;&gt;European Customer&lt;/p&gt;&lt;p style=&quot;language:fr;margin-top:0pt;margin-bottom:0pt;margin-left:0in;&lt;br/&gt;text-align:left;direction:ltr;unicode-bidi:embed;vertical-align:middle;&lt;br/&gt;mso-line-break-override:none;word-break:normal;punctuation-wrap:hanging&quot;&gt;Customer Size&lt;/p&gt;&lt;p style=&quot;language:fr;margin-top:0pt;margin-bottom:0pt;margin-left:0in;&lt;br/&gt;text-align:left;direction:ltr;unicode-bidi:embed;vertical-align:middle;&lt;br/&gt;mso-line-break-override:none;word-break:normal;punctuation-wrap:hanging&quot;&gt;E-Invoicing&lt;/p&gt;&lt;p style=&quot;language:fr;margin-top:0pt;margin-bottom:0pt;margin-left:0in;&lt;br/&gt;text-align:left;direction:ltr;unicode-bidi:embed;vertical-align:middle;&lt;br/&gt;mso-line-break-override:none;word-break:normal;punctuation-wrap:hanging&quot;&gt;E-Ordering&lt;/p&gt;&lt;p style=&quot;language:fr;margin-top:0pt;margin-bottom:0pt;margin-left:0in;&lt;br/&gt;text-align:left;direction:ltr;unicode-bidi:embed;vertical-align:middle;&lt;br/&gt;mso-line-break-override:none;word-break:normal;punctuation-wrap:hanging&quot;&gt;Check Date Ext Provider&lt;/p&gt;&lt;p style=&quot;language:fr;margin-top:0pt;margin-bottom:0pt;margin-left:0in;&lt;br/&gt;text-align:left;direction:ltr;unicode-bidi:embed;vertical-align:middle;&lt;br/&gt;mso-line-break-override:none;word-break:normal;punctuation-wrap:hanging&quot;&gt;Check Date Data Steward&lt;/p&gt;&lt;p style=&quot;language:fr;margin-top:0pt;margin-bottom:0pt;margin-left:0in;&lt;br/&gt;text-align:left;direction:ltr;unicode-bidi:embed;vertical-align:middle;&lt;br/&gt;mso-line-break-override:none;word-break:normal;punctuation-wrap:hanging&quot;&gt;Functional Modification date&lt;/p&gt;&lt;p style=&quot;language:fr;margin-top:0pt;margin-bottom:0pt;margin-left:0in;&lt;br/&gt;text-align:left;direction:ltr;unicode-bidi:embed;vertical-align:middle;&lt;br/&gt;mso-line-break-override:none;word-break:normal;punctuation-wrap:hanging&quot;&gt;Functional Creation date&lt;/p&gt;&lt;p style=&quot;language:fr;margin-top:0pt;margin-bottom:0pt;margin-left:0in;&lt;br/&gt;text-align:left;direction:ltr;unicode-bidi:embed;vertical-align:middle;&lt;br/&gt;mso-line-break-override:none;word-break:normal;punctuation-wrap:hanging&quot;&gt;Local Authority&lt;/p&gt;&lt;p style=&quot;language:fr;margin-top:0pt;margin-bottom:0pt;margin-left:0in;&lt;br/&gt;text-align:left;direction:ltr;unicode-bidi:embed;vertical-align:middle;&lt;br/&gt;mso-line-break-override:none;word-break:normal;punctuation-wrap:hanging&quot;&gt;Rowid Object&lt;/p&gt;&lt;p style=&quot;language:fr;margin-top:0pt;margin-bottom:0pt;margin-left:0in;&lt;br/&gt;text-align:left;direction:ltr;unicode-bidi:embed;vertical-align:middle;&lt;br/&gt;mso-line-break-override:none;word-break:normal;punctuation-wrap:hanging&quot;&gt;Functional Identifier&lt;/p&gt;&lt;p style=&quot;language:fr;margin-top:0pt;margin-bottom:0pt;margin-left:0in;&lt;br/&gt;text-align:left;direction:ltr;unicode-bidi:embed;vertical-align:middle;&lt;br/&gt;mso-line-break-override:none;word-break:normal;punctuation-wrap:hanging&quot;&gt;First Name&lt;/p&gt;&lt;p style=&quot;language:fr;margin-top:0pt;margin-bottom:0pt;margin-left:0in;&lt;br/&gt;text-align:left;direction:ltr;unicode-bidi:embed;vertical-align:middle;&lt;br/&gt;mso-line-break-override:none;word-break:normal;punctuation-wrap:hanging&quot;&gt;Last Name&lt;/p&gt;&lt;p style=&quot;language:fr;margin-top:0pt;margin-bottom:0pt;margin-left:0in;&lt;br/&gt;text-align:left;direction:ltr;unicode-bidi:embed;vertical-align:middle;&lt;br/&gt;mso-line-break-override:none;word-break:normal;punctuation-wrap:hanging&quot;&gt;Full Name&lt;/p&gt;&lt;p style=&quot;language:fr;margin-top:0pt;margin-bottom:0pt;margin-left:0in;&lt;br/&gt;text-align:left;direction:ltr;unicode-bidi:embed;vertical-align:middle;&lt;br/&gt;mso-line-break-override:none;word-break:normal;punctuation-wrap:hanging&quot;&gt;Rowid Object&lt;/p&gt;&lt;p style=&quot;language:fr;margin-top:0pt;margin-bottom:0pt;margin-left:0in;&lt;br/&gt;text-align:left;direction:ltr;unicode-bidi:embed;vertical-align:middle;&lt;br/&gt;mso-line-break-override:none;word-break:normal;punctuation-wrap:hanging&quot;&gt;Third party type&lt;/p&gt;&lt;p style=&quot;language:fr;margin-top:0pt;margin-bottom:0pt;margin-left:0in;&lt;br/&gt;text-align:left;direction:ltr;unicode-bidi:embed;vertical-align:middle;&lt;br/&gt;mso-line-break-override:none;word-break:normal;punctuation-wrap:hanging&quot;&gt;Organisation name&lt;/p&gt;&lt;p style=&quot;language:fr;margin-top:0pt;margin-bottom:0pt;margin-left:0in;&lt;br/&gt;text-align:left;direction:ltr;unicode-bidi:embed;vertical-align:middle;&lt;br/&gt;mso-line-break-override:none;word-break:normal;punctuation-wrap:hanging&quot;&gt;Organisation Silver ID&lt;/p&gt;&lt;p style=&quot;language:fr;margin-top:0pt;margin-bottom:0pt;margin-left:0in;&lt;br/&gt;text-align:left;direction:ltr;unicode-bidi:embed;vertical-align:middle;&lt;br/&gt;mso-line-break-override:none;word-break:normal;punctuation-wrap:hanging&quot;&gt;Subsidiary&lt;/p&gt;&lt;p style=&quot;language:fr;margin-top:0pt;margin-bottom:0pt;margin-left:0in;&lt;br/&gt;text-align:left;direction:ltr;unicode-bidi:embed;vertical-align:middle;&lt;br/&gt;mso-line-break-override:none;word-break:normal;punctuation-wrap:hanging&quot;&gt;Subsidiary Silver&amp;nbsp;&lt;/p&gt;" style="rounded=0;whiteSpace=wrap;html=1;align=left;fillColor=#e1d5e7;strokeColor=#9673a6;verticalAlign=top;" vertex="1" parent="1">
          <mxGeometry x="60" y="780" width="160" height="460" as="geometry" />
        </mxCell>
        <mxCell id="rktopHRJ8DNvwgO-e6lh-72" value="&lt;p style=&quot;language:fr;margin-top:0pt;margin-bottom:0pt;margin-left:0in;&lt;br/&gt;text-align:left;direction:ltr;unicode-bidi:embed;vertical-align:middle;&lt;br/&gt;mso-line-break-override:none;word-break:normal;punctuation-wrap:hanging&quot;&gt;Identifier type&lt;/p&gt;&lt;p style=&quot;language:fr;margin-top:0pt;margin-bottom:0pt;margin-left:0in;&lt;br/&gt;text-align:left;direction:ltr;unicode-bidi:embed;vertical-align:middle;&lt;br/&gt;mso-line-break-override:none;word-break:normal;punctuation-wrap:hanging&quot;&gt;DUNS Nbr&lt;/p&gt;&lt;p style=&quot;language:fr;margin-top:0pt;margin-bottom:0pt;margin-left:0in;&lt;br/&gt;text-align:left;direction:ltr;unicode-bidi:embed;vertical-align:middle;&lt;br/&gt;mso-line-break-override:none;word-break:normal;punctuation-wrap:hanging&quot;&gt;DUNS HQ&lt;/p&gt;&lt;p style=&quot;language:fr;margin-top:0pt;margin-bottom:0pt;margin-left:0in;&lt;br/&gt;text-align:left;direction:ltr;unicode-bidi:embed;vertical-align:middle;&lt;br/&gt;mso-line-break-override:none;word-break:normal;punctuation-wrap:hanging&quot;&gt;SIRET&lt;/p&gt;&lt;p style=&quot;language:fr;margin-top:0pt;margin-bottom:0pt;margin-left:0in;&lt;br/&gt;text-align:left;direction:ltr;unicode-bidi:embed;vertical-align:middle;&lt;br/&gt;mso-line-break-override:none;word-break:normal;punctuation-wrap:hanging&quot;&gt;RNA Code&lt;/p&gt;&lt;p style=&quot;language:fr;margin-top:0pt;margin-bottom:0pt;margin-left:0in;&lt;br/&gt;text-align:left;direction:ltr;unicode-bidi:embed;vertical-align:middle;&lt;br/&gt;mso-line-break-override:none;word-break:normal;punctuation-wrap:hanging&quot;&gt;SIREN&lt;/p&gt;&lt;p style=&quot;language:fr;margin-top:0pt;margin-bottom:0pt;margin-left:0in;&lt;br/&gt;text-align:left;direction:ltr;unicode-bidi:embed;vertical-align:middle;&lt;br/&gt;mso-line-break-override:none;word-break:normal;punctuation-wrap:hanging&quot;&gt;VAT Number&lt;/p&gt;" style="rounded=0;whiteSpace=wrap;html=1;align=left;fillColor=#e1d5e7;strokeColor=#9673a6;verticalAlign=top;" vertex="1" parent="1">
          <mxGeometry x="-480" y="800" width="160" height="110" as="geometry" />
        </mxCell>
        <mxCell id="rktopHRJ8DNvwgO-e6lh-73" value="&lt;p style=&quot;language:fr;margin-top:0pt;margin-bottom:0pt;margin-left:0in;&lt;br/&gt;text-align:left;direction:ltr;unicode-bidi:embed;vertical-align:middle;&lt;br/&gt;mso-line-break-override:none;word-break:normal;punctuation-wrap:hanging&quot;&gt;Functional Identifier&lt;/p&gt;&lt;p style=&quot;language:fr;margin-top:0pt;margin-bottom:0pt;margin-left:0in;&lt;br/&gt;text-align:left;direction:ltr;unicode-bidi:embed;vertical-align:middle;&lt;br/&gt;mso-line-break-override:none;word-break:normal;punctuation-wrap:hanging&quot;&gt;Business Name&lt;/p&gt;" style="rounded=0;whiteSpace=wrap;html=1;align=left;fillColor=#e1d5e7;strokeColor=#9673a6;verticalAlign=top;" vertex="1" parent="1">
          <mxGeometry x="60" y="730" width="160" height="40" as="geometry" />
        </mxCell>
      </root>
    </mxGraphModel>
  </diagram>
</mxfile>
